<svg width="40" height="40" viewBox="0 0 40 40" fill="none" xmlns="http://www.w3.org/2000/svg">
<rect width="40" height="40" rx="8" fill="#F5F0F0"/>
<g clip-path="url(#clip0_4_717)">
<path fill-rule="evenodd" clip-rule="evenodd" d="M27.3547 14.5992C27.2359 14.4571 27.0602 14.375 26.875 14.375H14.2719L13.8898 12.2766C13.7819 11.6822 13.2643 11.2501 12.6602 11.25H11.25C10.9048 11.25 10.625 11.5298 10.625 11.875C10.625 12.2202 10.9048 12.5 11.25 12.5H12.6562L14.6531 23.4602C14.7119 23.7852 14.8556 24.0889 15.0695 24.3406C14.25 25.1061 14.142 26.3674 14.8197 27.261C15.4973 28.1546 16.7409 28.391 17.6992 27.8084C18.6574 27.2257 19.0198 26.0128 18.5383 25H22.0867C21.9469 25.2927 21.8745 25.6131 21.875 25.9375C21.875 27.1456 22.8544 28.125 24.0625 28.125C25.2706 28.125 26.25 27.1456 26.25 25.9375C26.25 24.7294 25.2706 23.75 24.0625 23.75H16.4977C16.1956 23.75 15.9368 23.5339 15.8828 23.2367L15.6352 21.875H24.6977C25.6038 21.8749 26.3802 21.2267 26.5422 20.3352L27.4922 15.1117C27.5247 14.9289 27.4744 14.7412 27.3547 14.5992ZM17.5 25.9375C17.5 26.4553 17.0803 26.875 16.5625 26.875C16.0447 26.875 15.625 26.4553 15.625 25.9375C15.625 25.4197 16.0447 25 16.5625 25C17.0803 25 17.5 25.4197 17.5 25.9375ZM25 25.9375C25 26.4553 24.5803 26.875 24.0625 26.875C23.5447 26.875 23.125 26.4553 23.125 25.9375C23.125 25.4197 23.5447 25 24.0625 25C24.5803 25 25 25.4197 25 25.9375ZM25.3125 20.1117C25.2584 20.4098 24.9982 20.6261 24.6953 20.625H15.4078L14.4992 15.625H26.1258L25.3125 20.1117Z" fill="#171212"/>
</g>
<defs>
<clipPath id="clip0_4_717">
<rect width="20" height="20" fill="white" transform="translate(10 10)"/>
</clipPath>
</defs>
</svg>
