<svg width="160" height="40" viewBox="0 0 160 40" fill="none" xmlns="http://www.w3.org/2000/svg">
<path d="M0 8C0 3.58172 3.58172 0 8 0H40V40H8C3.58172 40 0 36.4183 0 32V8Z" fill="#F5F0F0"/>
<g clip-path="url(#clip0_4_710)">
<path fill-rule="evenodd" clip-rule="evenodd" d="M37.5306 28.4694L32.8366 23.7762C35.6629 20.383 35.3204 15.3669 32.0591 12.3893C28.7978 9.41176 23.7713 9.526 20.6487 12.6487C17.526 15.7713 17.4118 20.7978 20.3893 24.0591C23.3669 27.3204 28.383 27.6629 31.7762 24.8366L36.4694 29.5306C36.7624 29.8237 37.2376 29.8237 37.5306 29.5306C37.8237 29.2376 37.8237 28.7624 37.5306 28.4694ZM19.75 18.5C19.75 14.7721 22.7721 11.75 26.5 11.75C30.2279 11.75 33.25 14.7721 33.25 18.5C33.25 22.2279 30.2279 25.25 26.5 25.25C22.7738 25.2459 19.7541 22.2262 19.75 18.5Z" fill="#876363"/>
</g>
<path d="M40 0H152C156.418 0 160 3.58172 160 8V32C160 36.4183 156.418 40 152 40H40V0Z" fill="#F5F0F0"/>
<path d="M53.424 26.192C52.6667 26.192 51.9787 26.048 51.36 25.76C50.7413 25.472 50.2187 25.088 49.792 24.608C49.3653 24.1173 49.0613 23.5787 48.88 22.992L50.032 22.56C50.3093 23.3707 50.7413 23.9893 51.328 24.416C51.9147 24.832 52.6133 25.04 53.424 25.04C53.936 25.04 54.384 24.96 54.768 24.8C55.1627 24.6293 55.4667 24.3947 55.68 24.096C55.8933 23.7973 56 23.4507 56 23.056C56 22.4693 55.84 22.016 55.52 21.696C55.2 21.376 54.7413 21.1307 54.144 20.96L52 20.32C51.1573 20.0747 50.5067 19.664 50.048 19.088C49.6 18.512 49.376 17.856 49.376 17.12C49.376 16.4907 49.5307 15.936 49.84 15.456C50.1493 14.9653 50.5707 14.5813 51.104 14.304C51.648 14.0267 52.2613 13.888 52.944 13.888C53.6587 13.888 54.2987 14.0213 54.864 14.288C55.44 14.544 55.9253 14.8853 56.32 15.312C56.7147 15.7387 56.9973 16.2133 57.168 16.736L56.048 17.184C55.792 16.48 55.392 15.9467 54.848 15.584C54.3147 15.2213 53.6853 15.04 52.96 15.04C52.5013 15.04 52.096 15.12 51.744 15.28C51.4027 15.44 51.136 15.6693 50.944 15.968C50.752 16.2667 50.656 16.6187 50.656 17.024C50.656 17.5147 50.8107 17.9573 51.12 18.352C51.4293 18.736 51.904 19.024 52.544 19.216L54.432 19.776C55.3707 20.0533 56.08 20.4533 56.56 20.976C57.04 21.4987 57.28 22.1547 57.28 22.944C57.28 23.584 57.1147 24.1493 56.784 24.64C56.464 25.12 56.0107 25.4987 55.424 25.776C54.848 26.0533 54.1813 26.192 53.424 26.192ZM63.4798 26.192C62.6798 26.192 61.9544 26 61.3038 25.616C60.6638 25.2213 60.1571 24.6827 59.7838 24C59.4104 23.3173 59.2238 22.544 59.2238 21.68C59.2238 20.816 59.4051 20.0533 59.7678 19.392C60.1304 18.72 60.6211 18.192 61.2398 17.808C61.8691 17.424 62.5731 17.232 63.3518 17.232C63.9704 17.232 64.5198 17.3493 64.9998 17.584C65.4904 17.808 65.9064 18.1173 66.2478 18.512C66.5891 18.896 66.8504 19.3333 67.0318 19.824C67.2131 20.304 67.3038 20.8 67.3038 21.312C67.3038 21.4187 67.2984 21.5413 67.2878 21.68C67.2771 21.808 67.2611 21.9413 67.2398 22.08H59.9918V20.96H66.5518L65.9758 21.44C66.0718 20.8533 66.0024 20.3307 65.7678 19.872C65.5438 19.4027 65.2184 19.0347 64.7918 18.768C64.3651 18.4907 63.8851 18.352 63.3518 18.352C62.8184 18.352 62.3224 18.4907 61.8638 18.768C61.4158 19.0453 61.0638 19.4347 60.8078 19.936C60.5518 20.4267 60.4504 21.0133 60.5038 21.696C60.4504 22.3787 60.5571 22.976 60.8238 23.488C61.1011 23.9893 61.4744 24.3787 61.9438 24.656C62.4238 24.9333 62.9358 25.072 63.4798 25.072C64.1091 25.072 64.6371 24.9227 65.0638 24.624C65.4904 24.3253 65.8371 23.952 66.1038 23.504L67.1278 24.048C66.9571 24.432 66.6958 24.7893 66.3438 25.12C65.9918 25.44 65.5704 25.7013 65.0798 25.904C64.5998 26.096 64.0664 26.192 63.4798 26.192ZM71.7433 26.192C71.1993 26.192 70.7139 26.0907 70.2873 25.888C69.8606 25.6747 69.5246 25.3867 69.2793 25.024C69.0339 24.6613 68.9113 24.2453 68.9113 23.776C68.9113 23.328 69.0073 22.9227 69.1993 22.56C69.3913 22.1867 69.6899 21.872 70.0953 21.616C70.5006 21.36 71.0179 21.1787 71.6473 21.072L75.0073 20.512V21.6L71.9353 22.112C71.3166 22.2187 70.8686 22.416 70.5913 22.704C70.3246 22.992 70.1913 23.3333 70.1913 23.728C70.1913 24.112 70.3406 24.4373 70.6393 24.704C70.9486 24.9707 71.3433 25.104 71.8233 25.104C72.4099 25.104 72.9219 24.9813 73.3593 24.736C73.7966 24.48 74.1379 24.1387 74.3833 23.712C74.6286 23.2853 74.7513 22.8107 74.7513 22.288V20.112C74.7513 19.6 74.5646 19.184 74.1913 18.864C73.8179 18.544 73.3326 18.384 72.7352 18.384C72.2126 18.384 71.7539 18.5173 71.3593 18.784C70.9646 19.04 70.6713 19.376 70.4793 19.792L69.3913 19.2C69.5513 18.8373 69.8019 18.5067 70.1432 18.208C70.4953 17.9093 70.8953 17.6747 71.3433 17.504C71.7913 17.3227 72.2553 17.232 72.7352 17.232C73.3646 17.232 73.9193 17.3547 74.3993 17.6C74.8899 17.8453 75.2686 18.1867 75.5353 18.624C75.8126 19.0507 75.9513 19.5467 75.9513 20.112V26H74.7513V24.288L74.9273 24.464C74.7779 24.784 74.5433 25.0773 74.2233 25.344C73.9139 25.6 73.5459 25.808 73.1193 25.968C72.7033 26.1173 72.2446 26.192 71.7433 26.192ZM78.4195 26V17.424H79.6195V18.832L79.4595 18.624C79.6622 18.2187 79.9662 17.8987 80.3715 17.664C80.7875 17.4293 81.2888 17.312 81.8755 17.312H82.4195V18.512H81.6675C81.0488 18.512 80.5528 18.704 80.1795 19.088C79.8062 19.472 79.6195 20.016 79.6195 20.72V26H78.4195ZM87.7614 26.192C86.9187 26.192 86.1774 25.9947 85.5374 25.6C84.8974 25.2053 84.396 24.672 84.0334 24C83.6707 23.3173 83.4894 22.5493 83.4894 21.696C83.4894 20.8427 83.6707 20.08 84.0334 19.408C84.396 18.736 84.8974 18.208 85.5374 17.824C86.1774 17.4293 86.9187 17.232 87.7614 17.232C88.2947 17.232 88.796 17.328 89.2654 17.52C89.7347 17.712 90.1507 17.9733 90.5134 18.304C90.876 18.624 91.148 18.9973 91.3294 19.424L90.2414 19.984C90.028 19.5253 89.7027 19.152 89.2654 18.864C88.828 18.576 88.3267 18.432 87.7614 18.432C87.196 18.432 86.684 18.576 86.2254 18.864C85.7774 19.1413 85.42 19.5307 85.1534 20.032C84.8974 20.5227 84.7694 21.0827 84.7694 21.712C84.7694 22.3307 84.8974 22.8907 85.1534 23.392C85.42 23.8827 85.7774 24.272 86.2254 24.56C86.684 24.848 87.196 24.992 87.7614 24.992C88.3267 24.992 88.8227 24.848 89.2494 24.56C89.6867 24.272 90.0174 23.888 90.2414 23.408L91.3294 24C91.148 24.416 90.876 24.7893 90.5134 25.12C90.1507 25.4507 89.7347 25.712 89.2654 25.904C88.796 26.096 88.2947 26.192 87.7614 26.192ZM93.4508 26V13.888H94.6508V19.088L94.3788 19.024C94.5921 18.4693 94.9388 18.032 95.4188 17.712C95.9094 17.392 96.4748 17.232 97.1148 17.232C97.7228 17.232 98.2668 17.3707 98.7468 17.648C99.2374 17.9253 99.6214 18.3093 99.8988 18.8C100.187 19.28 100.331 19.824 100.331 20.432V26H99.1308V20.896C99.1308 20.3733 99.0348 19.9307 98.8428 19.568C98.6508 19.2053 98.3841 18.928 98.0428 18.736C97.7121 18.5333 97.3334 18.432 96.9068 18.432C96.4801 18.432 96.0961 18.5333 95.7548 18.736C95.4134 18.928 95.1414 19.2107 94.9388 19.584C94.7468 19.9467 94.6508 20.384 94.6508 20.896V26H93.4508Z" fill="#876363"/>
<defs>
<clipPath id="clip0_4_710">
<rect width="24" height="24" fill="white" transform="translate(16 8)"/>
</clipPath>
</defs>
</svg>
